<svg xmlns="http://www.w3.org/2000/svg" version="1.1" xmlns:xlink="http://www.w3.org/1999/xlink" xmlns:svgjs="http://svgjs.dev/svgjs" width="1000" height="348" viewBox="0 0 1000 348"><g transform="matrix(1,0,0,1,-0.6060601414174016,0.1797938494167397)"><svg viewBox="0 0 396 138" data-background-color="#ffffff" preserveAspectRatio="xMidYMid meet" height="348" width="1000" xmlns="http://www.w3.org/2000/svg" xmlns:xlink="http://www.w3.org/1999/xlink"><g id="tight-bounds" transform="matrix(1,0,0,1,0.24000018399863166,-0.07129756097560858)"><svg viewBox="0 0 395.52 138.1425951219512" height="138.1425951219512" width="395.52"><g><svg viewBox="0 0 395.52 138.1425951219512" height="138.1425951219512" width="395.52"><g><svg viewBox="0 0 395.52 138.1425951219512" height="138.1425951219512" width="395.52"><g id="textblocktransform"><svg viewBox="0 0 395.52 138.1425951219512" height="138.1425951219512" width="395.52" id="textblock"><g><svg viewBox="0 0 395.52 138.1425951219512" height="138.1425951219512" width="395.52"><g transform="matrix(1,0,0,1,0,0)"><svg width="395.52" viewBox="3.6500000953674316 -35.150001525878906 102.5 35.80000305175781" height="138.1425951219512" data-palette-color="#ed2647"><path d="M32-34.5L36.95-34.5Q38.75-34.5 38.75-32.65L38.75-32.65 40.2 0 35.8 0 34.55-30.85 33.5-30.85 25.8-5.4Q25.4-3.9 23.9-3.9L23.9-3.9 19.95-3.9Q18.4-3.9 17.95-5.4L17.95-5.4 10.25-30.85 9.25-30.85 8.05 0 3.65 0 5-32.65Q5.1-34.5 6.85-34.5L6.85-34.5 11.85-34.5Q13.25-34.5 13.7-33L13.7-33 20.15-11.95Q20.55-10.8 20.83-9.65 21.1-8.5 21.45-7.3L21.45-7.3 22.35-7.3Q22.7-8.5 23-9.65 23.3-10.8 23.65-12.05L23.65-12.05 30.1-33Q30.5-34.5 32-34.5L32-34.5ZM61.35-35.15L61.35-35.15Q63.1-35.15 64.75-35.05 66.4-34.95 67.95-34.73 69.5-34.5 70.95-34.1L70.95-34.1 70.5-30.8Q68.95-30.95 67.37-31.05 65.8-31.15 64.35-31.18 62.9-31.2 61.6-31.2L61.6-31.2Q58.8-31.2 56.87-30.68 54.95-30.15 53.8-28.65 52.65-27.15 52.12-24.35 51.6-21.55 51.6-17.05L51.6-17.05Q51.6-11.95 52.3-8.93 53-5.9 54.65-4.55 56.3-3.2 59.05-3.2L59.05-3.2Q60.95-3.2 62.52-3.75 64.1-4.3 65.47-5.18 66.85-6.05 68.15-7L68.15-7 68.75-4.3Q67.85-3.25 66.27-2.1 64.7-0.95 62.6-0.15 60.5 0.65 57.85 0.65L57.85 0.65Q54 0.65 51.57-1.28 49.15-3.2 48.05-7.18 46.95-11.15 46.95-17.35L46.95-17.35Q46.95-24.2 48.32-28.08 49.7-31.95 52.87-33.55 56.05-35.15 61.35-35.15ZM67.55-19.95L71.85-19.95 71.85 0 68.65 0 67.95-5.1 67.55-6.1 67.55-19.95ZM101.8-34.5L106.15-34.5 106.15-1.75Q106.15 0 104.45 0L104.45 0 100.15 0Q99.4 0 98.95-0.35 98.5-0.7 98.2-1.4L98.2-1.4 86.55-25.85Q86.09-26.85 85.5-28.1 84.9-29.35 84.59-30.4L84.59-30.4 83.8-30.4Q83.9-29.3 83.95-28.15 84-27 84-25.85L84-25.85 84 0 79.59 0 79.59-32.75Q79.59-34.5 81.34-34.5L81.34-34.5 85.5-34.5Q86.25-34.5 86.7-34.15 87.15-33.8 87.45-33.1L87.45-33.1 98.75-9.25Q99.3-8.2 99.92-6.88 100.55-5.55 101.09-4.25L101.09-4.25 101.95-4.25Q101.9-5.6 101.84-6.9 101.8-8.2 101.8-9.5L101.8-9.5 101.8-34.5Z" opacity="1" transform="matrix(1,0,0,1,0,0)" fill="#ed2647" class="undefined-text-0" data-fill-palette-color="primary" id="text-0"></path></svg></g></svg></g></svg></g></svg></g><g></g></svg></g><defs></defs></svg><rect width="395.52" height="138.1425951219512" fill="none" stroke="none" visibility="hidden"></rect></g></svg></g></svg>